<svg xmlns="http://www.w3.org/2000/svg" viewBox="0 0 696 75.6"><defs><style>.cls-1{fill:#44403c;}.cls-2,.cls-3{fill:#ef4444;}.cls-3{font-size:72px;font-family:KlavikaBold-Bold, Klavika Bold;font-weight:700;}</style></defs><g id="Layer_2" data-name="Layer 2"><g id="图层_1" data-name="图层 1"><path class="cls-1" d="M86.1,28.89c0-5.9-11.2-11.8-20-11.8a18.62,18.62,0,0,0-5.6.7l2.6-2.6H73.5a2.55,2.55,0,0,0,0-5.1H62.1a2.41,2.41,0,0,0-1.8.7L51,20.09a6,6,0,0,0,.5-2.4c0-3.6-3.5-6.6-5.9-6.6s-4.4,2.9-4.4,6.6,2,6.6,4.4,6.6a3.17,3.17,0,0,0,1.6-.4l-27,27a2.55,2.55,0,0,0,3.6,3.6l30.7-30.7a12.65,12.65,0,0,0-.3,2.8c0,5.9,3.1,9.5,11.9,9.5S86.1,34.79,86.1,28.89Zm-41.4-6.6c-1.2,0-2.2-2-2.2-4.5s1-4.5,2.2-4.5,2.2,2,2.2,4.5S45.9,22.29,44.7,22.29Zm-22.2,30a.71.71,0,0,1-1-1l35-35.2a.71.71,0,0,1,1,1ZM67,21c-6.1,0-9.6,1.7-11.1,4.7.5-4.3,3.3-6.9,10.2-6.9,5.8,0,12.8,3,15.8,6.7A29.89,29.89,0,0,0,67,21Zm27.2,4.4c0-2.8,8.1-2.5,20.5-2.5s19.2-.3,19.2,2.5-6.8,4.5-19.2,4.5S94.2,28.19,94.2,25.39ZM137,61.29a3.59,3.59,0,0,0,3.6-3.6,3.65,3.65,0,0,0-3.6-3.6H104.6c0-1.7,0-4.7.1-7.4.6-9.2,6.1-13,6.1-13l-20.7-4c-.9,10-18.6,9.8-18.6,9.8s-7.6,21.6,12.7,21.9c2.1,0,7.8.1,10.3.1a.1.1,0,0,0-.1-.1l42.6-.1Zm.8-5.1a.9.9,0,0,1-.9.9H97.7a.9.9,0,0,1,0-1.8h39.1A.87.87,0,0,1,137.8,56.19Zm-53.9,1.5c-13.7-1.7-9.6-15.8-9.6-15.8s14.8.3,17.9-8.9l13,2.8C105.1,35.69,83.2,35,83.9,57.69ZM41.2,40.79a22.45,22.45,0,1,1-18.8-10.1,21.78,21.78,0,0,1,11.3,3.1l-4.3,4.3a16.29,16.29,0,0,0-7-1.5A16.5,16.5,0,1,0,39,53.09a16.73,16.73,0,0,0-2.1-8Zm113,12.3a22.41,22.41,0,0,1-42.3,10.3h7a16.48,16.48,0,1,0-3.6-11.3h-5.9a22.41,22.41,0,0,1,44.8,1Z"/><path class="cls-2" d="M242.7,35.49l-82.1-7.7,43.7-9L79.8,13.19a4.71,4.71,0,0,1-2.2,3.5c5.8,2.2,10.7,5.9,12,10.1h0l4.5.9a3.51,3.51,0,0,1-.7-2.3c0-3.6,4.3-4.2,5.8-4.4a96.61,96.61,0,0,1,10.7-.4h12.5a82.81,82.81,0,0,1,10,.4c3.5.5,5.3,2,5.3,4.4a4.26,4.26,0,0,1-1.4,3.1A24.67,24.67,0,0,1,158.1,53a25.06,25.06,0,0,1-7.2,17.5l77-16.4-51.9-4Z"/><text class="cls-3" transform="translate(249.7 59.98)">motor<tspan class="cls-1" x="185.9" y="0">depo.hu</tspan></text></g></g></svg>